<svg width="50" height="50" viewBox="0 0 50 50" fill="none" xmlns="http://www.w3.org/2000/svg">
<g clip-path="url(#clip0_32_9)">
<mask id="mask0_32_9" style="mask-type:luminance" maskUnits="userSpaceOnUse" x="0" y="0" width="50" height="50">
<path d="M50 0H0V50H50V0Z" fill="white"/>
</mask>
<g mask="url(#mask0_32_9)">
<path d="M8.85417 0.625H41.1458C46.0417 0.625 50 4.58333 50 9.47917V40.5208C50 45.4167 46.0417 49.375 41.1458 49.375H8.85417C3.95833 49.375 0 45.4167 0 40.5208V9.47917C0 4.58333 3.95833 0.625 8.85417 0.625Z" fill="#252525"/>
<path d="M24.1666 29.7917H16.4166L14.8333 34.6875C14.7916 34.875 14.625 35 14.4375 34.9792H10.5208C10.2916 34.9792 10.2291 34.8542 10.2916 34.6042L17 15.2917C17.0625 15.0833 17.125 14.8542 17.2083 14.6042C17.2916 14.1667 17.3333 13.7083 17.3333 13.25C17.3125 13.1458 17.3958 13.0417 17.5 13.0208H22.8958C23.0625 13.0208 23.1458 13.0833 23.1666 13.1875L30.7708 34.6458C30.8333 34.875 30.7708 34.9792 30.5625 34.9792H26.2083C26.0625 35 25.9166 34.8958 25.875 34.75L24.1666 29.7917ZM17.625 25.5625H22.9166C22.7916 25.125 22.625 24.6042 22.4375 24.0625C22.25 23.5 22.0625 22.8958 21.875 22.2708C21.6666 21.625 21.4791 21 21.2708 20.3542C21.0625 19.7083 20.875 19.1042 20.7083 18.5C20.5416 17.9167 20.3958 17.375 20.25 16.875H20.2083C20.0208 17.7708 19.7916 18.6667 19.5 19.5625C19.1875 20.5625 18.875 21.6042 18.5416 22.6458C18.25 23.7083 17.9375 24.6875 17.625 25.5625ZM35.4166 16.6667C34.7291 16.6875 34.0625 16.4167 33.5625 15.9375C33.0833 15.4167 32.8333 14.7292 32.8541 14.0208C32.8333 13.3125 33.1041 12.6458 33.6041 12.1667C34.1041 11.6875 34.7708 11.4375 35.4583 11.4375C36.2708 11.4375 36.8958 11.6875 37.3541 12.1667C37.8125 12.6667 38.0625 13.3333 38.0416 14.0208C38.0625 14.7292 37.8125 15.4167 37.3125 15.9375C36.8333 16.4375 36.125 16.7083 35.4166 16.6667ZM33.0833 34.75V18.7083C33.0833 18.5 33.1666 18.4167 33.3541 18.4167H37.4791C37.6666 18.4167 37.75 18.5208 37.75 18.7083V34.75C37.75 34.9792 37.6666 35.0833 37.4791 35.0833H33.3958C33.1875 35.0833 33.0833 34.9583 33.0833 34.75Z" fill="white"/>
</g>
</g>
<defs>
<clipPath id="clip0_32_9">
<rect width="50" height="50" fill="white"/>
</clipPath>
</defs>
</svg>
