<svg width="50" height="50" viewBox="0 0 50 50" fill="none" xmlns="http://www.w3.org/2000/svg">
<path d="M24.9907 25.0094C24.9907 20.4158 28.7147 16.6729 33.3272 16.6729C37.9208 16.6729 41.6637 20.3969 41.6637 25.0094C41.6637 29.603 37.9397 33.3458 33.3272 33.3458C28.7336 33.3458 24.9907 29.603 24.9907 25.0094Z" fill="#252525"/>
<path d="M8.33643 41.6635C8.33643 37.0699 12.0604 33.327 16.6729 33.327H25.0094V41.6635C25.0094 46.2571 21.2854 50 16.6729 50C12.0604 50 8.33643 46.276 8.33643 41.6635Z" fill="#252525"/>
<path d="M24.9907 16.673L33.3272 16.6728C37.9208 16.6728 41.6637 12.949 41.6637 8.33651C41.6637 3.74292 37.9397 0 33.3272 0H24.9907V16.673Z" fill="#252525"/>
<path d="M8.33643 8.35519C8.33643 12.9488 12.0604 16.6917 16.6729 16.6917H25.0094V0.0186768H16.6729C12.0604 0.0186768 8.33643 3.7427 8.33643 8.35519Z" fill="#252525"/>
<path d="M8.33643 25.0094C8.33643 29.603 12.0604 33.3458 16.6729 33.3458H25.0094V16.6729H16.6729C12.0604 16.6729 8.33643 20.4158 8.33643 25.0094Z" fill="#252525"/>
</svg>
