<svg width="50" height="50" viewBox="0 0 50 50" fill="none" xmlns="http://www.w3.org/2000/svg">
<path d="M25.0001 0C11.1947 0 0 11.1927 0 25.0001C0 36.046 7.16328 45.417 17.0967 48.7228C18.346 48.9542 18.8048 48.1805 18.8048 47.5201C18.8048 46.924 18.7815 44.9545 18.7709 42.8655C11.8157 44.3778 10.3481 39.9158 10.3481 39.9158C9.21085 37.0261 7.57228 36.2579 7.57228 36.2579C5.30413 34.7062 7.74326 34.738 7.74326 34.738C10.2538 34.9145 11.5757 37.3144 11.5757 37.3144C13.8054 41.1364 17.4241 40.0313 18.8507 39.3927C19.075 37.7767 19.723 36.674 20.4379 36.0497C14.8852 35.4174 9.04772 33.2737 9.04772 23.6945C9.04772 20.9651 10.0244 18.7348 11.6237 16.9841C11.3641 16.3543 10.5085 13.8117 11.8659 10.3681C11.8659 10.3681 13.9652 9.69613 18.7427 12.9307C20.7367 12.3766 22.8755 12.099 25.0001 12.0896C27.1247 12.099 29.265 12.3766 31.263 12.9307C36.0348 9.69613 38.1312 10.3681 38.1312 10.3681C39.4919 13.8117 38.6359 16.3543 38.3763 16.9841C39.9792 18.7348 40.9491 20.9649 40.9491 23.6945C40.9491 33.2965 35.1007 35.4109 29.5339 36.0297C30.4305 36.8056 31.2295 38.3271 31.2295 40.6593C31.2295 44.0043 31.2005 46.6966 31.2005 47.5201C31.2005 48.1854 31.6504 48.9649 32.9179 48.7195C42.8457 45.41 50 36.0423 50 25.0001C50 11.1927 38.8069 0 25.0001 0Z" fill="#252525"/>
<path d="M9.36343 35.6133C9.30853 35.7374 9.11285 35.7746 8.93502 35.6895C8.75365 35.608 8.6517 35.4385 8.71052 35.3139C8.76444 35.186 8.96011 35.1503 9.14109 35.2362C9.32285 35.3176 9.42637 35.4886 9.36343 35.6133ZM10.5932 36.7105C10.4739 36.8211 10.2408 36.7697 10.0826 36.595C9.9191 36.4207 9.88851 36.1877 10.0094 36.0754C10.1324 35.965 10.3585 36.0166 10.5224 36.1911C10.6859 36.3673 10.7179 36.5987 10.5932 36.7105ZM11.4369 38.1143C11.2835 38.2208 11.0329 38.121 10.8782 37.8987C10.7251 37.6765 10.7251 37.4099 10.8816 37.303C11.0369 37.1961 11.2835 37.2922 11.4404 37.5128C11.5933 37.7389 11.5935 38.0053 11.4369 38.1143ZM12.8635 39.7404C12.7264 39.8913 12.4347 39.8509 12.2209 39.6447C12.0025 39.4431 11.9415 39.157 12.079 39.0059C12.2176 38.8545 12.5111 38.8971 12.7264 39.1016C12.9435 39.3027 13.0095 39.591 12.8635 39.7404ZM14.7073 40.2894C14.6471 40.485 14.366 40.5741 14.0828 40.4909C13.8001 40.4052 13.615 40.1758 13.6721 39.978C13.7309 39.7809 14.0132 39.6882 14.2985 39.7772C14.5809 39.8625 14.7661 40.0902 14.7073 40.2894ZM16.8061 40.5221C16.8131 40.7284 16.5729 40.8993 16.2757 40.9031C15.9767 40.9095 15.7349 40.7427 15.7318 40.5399C15.7318 40.3317 15.9665 40.1623 16.2653 40.1574C16.5626 40.1515 16.8061 40.3172 16.8061 40.5221ZM18.8676 40.4431C18.9033 40.6442 18.6966 40.8509 18.4015 40.9058C18.1113 40.9587 17.8427 40.8346 17.8056 40.6352C17.7696 40.429 17.9802 40.2225 18.2697 40.169C18.5654 40.1176 18.8299 40.2386 18.8676 40.4431Z" fill="#252525"/>
</svg>
