<svg width="50" height="50" viewBox="0 0 50 50" fill="none" xmlns="http://www.w3.org/2000/svg">
<path d="M25 38.0137C38.8071 38.0137 50 32.1873 50 25C50 17.8127 38.8071 11.9863 25 11.9863C11.1929 11.9863 0 17.8127 0 25C0 32.1873 11.1929 38.0137 25 38.0137Z" fill="#252525"/>
<path fill-rule="evenodd" clip-rule="evenodd" d="M7.02051 32.7054L9.76035 18.8354H16.0957C18.8354 19.0067 20.2053 20.3765 20.2053 22.7739C20.2053 26.8835 16.952 29.2808 14.0408 29.1095H10.959L10.274 32.7054H7.02051ZM11.6438 26.5411L12.5 21.404H14.726C15.9246 21.404 16.7807 21.9177 16.7807 22.945C16.6096 25.8562 15.2396 26.3698 13.6986 26.5411H11.6438ZM19.5687 29.1095L22.3084 15.2397H25.5619L24.877 18.8354H27.959C30.6988 19.0067 31.7262 20.3765 31.3838 22.089L30.1852 29.1095H26.7605L27.9592 22.7739C28.1303 21.9177 28.1303 21.404 26.9318 21.404H24.3633L22.8223 29.1095H19.5687ZM29.9658 32.7054L32.7055 18.8354H39.041C41.7809 19.0067 43.1508 20.3765 43.1508 22.7739C43.1508 26.8835 39.8973 29.2808 36.9863 29.1095H33.9041L33.2191 32.7054H29.9658ZM34.5889 26.5411L35.4451 21.404H37.6713C38.8699 21.404 39.726 21.9177 39.726 22.945C39.5549 25.8562 38.185 26.3698 36.6439 26.5411H34.5889Z" fill="white"/>
</svg>
