<svg width="50" height="50" viewBox="0 0 50 50" fill="none" xmlns="http://www.w3.org/2000/svg">
<g clip-path="url(#clip0_32_57)">
<mask id="mask0_32_57" style="mask-type:luminance" maskUnits="userSpaceOnUse" x="0" y="0" width="50" height="50">
<path d="M50 0H0V50H50V0Z" fill="white"/>
</mask>
<g mask="url(#mask0_32_57)">
<path d="M0.475709 17.5169C0.475709 17.5169 -0.742106 16.6391 0.719272 15.4669L4.12408 12.4224C4.12408 12.4224 5.09833 11.3974 6.1284 12.2905L37.548 36.0784V47.4853C37.548 47.4853 37.5328 49.2765 35.2342 49.0786L0.475709 17.5169Z" fill="#252525"/>
<path d="M8.57428 24.8694L0.475812 32.2321C0.475812 32.2321 -0.356362 32.8512 0.475812 33.9573L4.23581 37.3774C4.23581 37.3774 5.12888 38.3364 6.44818 37.2454L15.0338 30.7352L8.57428 24.8694Z" fill="#252525"/>
<path d="M22.7922 24.9302L37.6445 13.5893L37.5481 2.24332C37.5481 2.24332 36.9138 -0.232898 34.7978 1.05595L15.0337 19.0441L22.7922 24.9302Z" fill="#252525"/>
<path d="M35.234 49.0936C36.0967 49.9766 37.1419 49.6873 37.1419 49.6873L48.7163 43.9839C50.1979 42.9741 49.9899 41.7208 49.9899 41.7208V7.66255C49.9899 6.16565 48.4575 5.64808 48.4575 5.64808L38.4257 0.812343C36.2337 -0.542477 34.7976 1.05593 34.7976 1.05593C34.7976 1.05593 36.6447 -0.273513 37.5479 2.2433V47.2771C37.5479 47.5866 37.4819 47.891 37.35 48.1651C37.0861 48.6978 36.5127 49.1951 35.1376 48.9871L35.234 49.0936Z" fill="#252525"/>
</g>
</g>
<defs>
<clipPath id="clip0_32_57">
<rect width="50" height="50" fill="white"/>
</clipPath>
</defs>
</svg>
