<svg width="50" height="50" viewBox="0 0 50 50" fill="none" xmlns="http://www.w3.org/2000/svg">
<g clip-path="url(#clip0_32_66)">
<mask id="mask0_32_66" style="mask-type:luminance" maskUnits="userSpaceOnUse" x="0" y="0" width="50" height="50">
<path d="M50 0H0V50H50V0Z" fill="white"/>
</mask>
<g mask="url(#mask0_32_66)">
<path d="M3.55352 24.9993C3.55352 33.4885 8.48656 40.8246 15.6403 44.3011L5.41027 16.2713C4.18394 19.0175 3.55123 21.9917 3.55352 24.9993ZM39.4771 23.917C39.4771 21.2667 38.525 19.431 37.7086 18.0024C36.6214 16.2358 35.6024 14.7398 35.6024 12.9732C35.6024 11.0017 37.0976 9.16641 39.2038 9.16641C39.2989 9.16641 39.3889 9.17818 39.4816 9.18367C35.6661 5.68788 30.5827 3.55363 24.9995 3.55363C17.5072 3.55363 10.9156 7.39784 7.08096 13.2204C7.58406 13.2355 8.05815 13.2459 8.46107 13.2459C10.7041 13.2459 14.1764 12.974 14.1764 12.974C15.3326 12.9057 15.4689 14.6037 14.3141 14.7406C14.3141 14.7406 13.1522 14.8772 11.8593 14.9449L19.6694 38.1754L24.3627 24.0993L21.0213 14.9443C19.8665 14.8766 18.7724 14.74 18.7724 14.74C17.6168 14.6721 17.7523 12.9051 18.9079 12.9734C18.9079 12.9734 22.4497 13.2455 24.5568 13.2455C26.7998 13.2455 30.2723 12.9734 30.2723 12.9734C31.4291 12.9051 31.5652 14.6031 30.41 14.74C30.41 14.74 29.2457 14.8766 27.9552 14.9443L35.7055 37.9988L37.8446 30.8503C38.7716 27.8839 39.4771 25.7532 39.4771 23.917ZM25.3758 26.8753L18.9412 45.5735C20.9085 46.1529 22.9487 46.4471 24.9995 46.4472C27.4968 46.4472 29.8918 46.0154 32.1213 45.2315C32.0617 45.1377 32.0106 45.0388 31.9685 44.936L25.3758 26.8753ZM43.8174 14.71C43.9096 15.3931 43.9619 16.1264 43.9619 16.9152C43.9619 19.0916 43.5555 21.538 42.3312 24.597L35.7804 43.5376C42.1561 39.8195 46.4445 32.9118 46.4445 24.9999C46.4449 21.2712 45.4926 17.7648 43.8174 14.71ZM24.9995 0C11.215 0 0 11.2146 0 24.9993C0 38.7858 11.215 50 24.9995 50C38.7834 50 50 38.7858 50 24.9993C49.9998 11.2146 38.7834 0 24.9995 0ZM24.9995 48.8541C11.8473 48.8541 1.14621 38.1529 1.14621 24.9993C1.14621 11.8467 11.8468 1.14624 24.9995 1.14624C38.1513 1.14624 48.8514 11.8467 48.8514 24.9993C48.8514 38.1529 38.1513 48.8541 24.9995 48.8541Z" fill="#732828"/>
</g>
</g>
<defs>
<clipPath id="clip0_32_66">
<rect width="50" height="50" fill="white"/>
</clipPath>
</defs>
</svg>
