<svg width="50" height="50" viewBox="0 0 50 50" fill="none" xmlns="http://www.w3.org/2000/svg">
<g clip-path="url(#clip0_32_2)">
<mask id="mask0_32_2" style="mask-type:luminance" maskUnits="userSpaceOnUse" x="0" y="0" width="50" height="50">
<path d="M50 0H0V50H50V0Z" fill="white"/>
</mask>
<g mask="url(#mask0_32_2)">
<path d="M8.85417 0.625H41.1458C46.0417 0.625 50 4.58333 50 9.47917V40.5208C50 45.4167 46.0417 49.375 41.1458 49.375H8.85417C3.95833 49.375 0 45.4167 0 40.5208V9.47917C0 4.58333 3.95833 0.625 8.85417 0.625Z" fill="#285773"/>
<path d="M11.25 34.8127V13.3752C11.25 13.2293 11.3125 13.146 11.4583 13.146C11.8125 13.146 12.1458 13.146 12.625 13.1252C13.125 13.1043 13.6458 13.1043 14.2083 13.0835C14.7708 13.0627 15.375 13.0627 16.0208 13.0418C16.6667 13.021 17.2917 13.021 17.9167 13.021C19.625 13.021 21.0417 13.2293 22.2083 13.6668C23.25 14.021 24.2083 14.6043 25 15.3752C25.6667 16.0418 26.1875 16.8543 26.5208 17.7502C26.8333 18.6252 27 19.521 27 20.4585C27 22.2502 26.5833 23.7293 25.75 24.896C24.9167 26.0627 23.75 26.9377 22.3958 27.4377C20.9792 27.9585 19.4167 28.146 17.7083 28.146C17.2083 28.146 16.875 28.146 16.6667 28.1252C16.4583 28.1043 16.1667 28.1043 15.7708 28.1043V34.7918C15.7917 34.9377 15.6875 35.0627 15.5417 35.0835H11.5C11.3333 35.0835 11.25 35.0002 11.25 34.8127ZM15.7917 17.1668V24.1668C16.0833 24.1877 16.3542 24.2085 16.6042 24.2085H17.7083C18.5208 24.2085 19.3333 24.0835 20.1042 23.8335C20.7708 23.646 21.3542 23.2502 21.8125 22.7293C22.25 22.2085 22.4583 21.5002 22.4583 20.5835C22.4792 19.9377 22.3125 19.2918 21.9792 18.7293C21.625 18.1877 21.125 17.771 20.5208 17.5418C19.75 17.2293 18.9167 17.1043 18.0625 17.1252C17.5208 17.1252 17.0417 17.1252 16.6458 17.146C16.2292 17.1252 15.9375 17.146 15.7917 17.1668ZM40 22.896C39.375 22.5627 38.7083 22.3335 38 22.1877C37.2292 22.021 36.4583 21.9168 35.6667 21.9168C35.25 21.896 34.8125 21.9585 34.4167 22.0627C34.1458 22.1252 33.9167 22.271 33.7708 22.4793C33.6667 22.646 33.6042 22.8543 33.6042 23.0418C33.6042 23.2293 33.6875 23.4168 33.8125 23.5835C34 23.8127 34.25 24.0002 34.5208 24.146C35 24.396 35.5 24.6252 36 24.8335C37.125 25.2085 38.2083 25.7293 39.2083 26.3543C39.8958 26.7918 40.4583 27.3752 40.8542 28.0835C41.1875 28.7502 41.3542 29.4793 41.3333 30.2293C41.3542 31.2085 41.0625 32.1877 40.5208 33.0002C39.9375 33.8335 39.125 34.4793 38.1875 34.8543C37.1667 35.2918 35.9167 35.521 34.4167 35.521C33.4583 35.521 32.5208 35.4377 31.5833 35.2502C30.8542 35.1252 30.125 34.896 29.4583 34.5835C29.3125 34.5002 29.2083 34.3543 29.2292 34.1877V30.5627C29.2292 30.5002 29.25 30.4168 29.3125 30.3752C29.375 30.3335 29.4375 30.3543 29.5 30.396C30.3125 30.8752 31.1667 31.2085 32.0833 31.4168C32.875 31.6252 33.7083 31.7293 34.5417 31.7293C35.3333 31.7293 35.8958 31.6252 36.2708 31.4377C36.6042 31.2918 36.8333 30.9377 36.8333 30.5627C36.8333 30.271 36.6667 30.0002 36.3333 29.7293C36 29.4585 35.3125 29.146 34.2917 28.7502C33.2292 28.3752 32.25 27.8752 31.3333 27.2502C30.6875 26.7918 30.1458 26.1877 29.75 25.4793C29.4167 24.8127 29.25 24.0835 29.2708 23.3543C29.2708 22.4585 29.5208 21.6043 29.9792 20.8335C30.5 20.0002 31.2708 19.3335 32.1667 18.9168C33.1458 18.4168 34.375 18.1877 35.8542 18.1877C36.7083 18.1877 37.5833 18.2502 38.4375 18.3752C39.0625 18.4585 39.6667 18.6252 40.2292 18.8543C40.3125 18.8752 40.3958 18.9585 40.4375 19.0418C40.4583 19.1252 40.4792 19.2085 40.4792 19.2918V22.6877C40.4792 22.771 40.4375 22.8543 40.375 22.896C40.1875 22.9377 40.0833 22.9377 40 22.896Z" fill="white"/>
</g>
</g>
<defs>
<clipPath id="clip0_32_2">
<rect width="50" height="50" fill="white"/>
</clipPath>
</defs>
</svg>
