<svg width="50" height="50" viewBox="0 0 50 50" fill="none" xmlns="http://www.w3.org/2000/svg">
<g clip-path="url(#clip0_32_46)">
<mask id="mask0_32_46" style="mask-type:luminance" maskUnits="userSpaceOnUse" x="0" y="0" width="50" height="50">
<path d="M50 0H0V50H50V0Z" fill="white"/>
</mask>
<g mask="url(#mask0_32_46)">
<path d="M45.3171 0H5.08276C2.38606 0 0.199951 2.18611 0.199951 4.88281V45.1172C0.199951 47.8139 2.38606 50 5.08276 50H45.3171C48.0138 50 50.2 47.8139 50.2 45.1172V4.88281C50.2 2.18611 48.0138 0 45.3171 0Z" fill="#285773"/>
<path d="M41.3562 6.5H30.7936C29.4992 6.5 28.45 7.54933 28.45 8.84375V26.0312C28.45 27.3257 29.4992 28.375 30.7936 28.375H41.3562C42.6506 28.375 43.7 27.3257 43.7 26.0312V8.84375C43.7 7.54933 42.6506 6.5 41.3562 6.5Z" fill="white"/>
<path d="M19.6062 6.5H9.0437C7.74928 6.5 6.69995 7.54933 6.69995 8.84375V38.5312C6.69995 39.8257 7.74928 40.875 9.0437 40.875H19.6062C20.9006 40.875 21.95 39.8257 21.95 38.5312V8.84375C21.95 7.54933 20.9006 6.5 19.6062 6.5Z" fill="white"/>
</g>
</g>
<defs>
<clipPath id="clip0_32_46">
<rect width="50" height="50" fill="white"/>
</clipPath>
</defs>
</svg>
